<svg width="25" height="25" viewBox="0 0 25 25" fill="none" xmlns="http://www.w3.org/2000/svg">
<path d="M22.2629 5.42282C22.7784 3.42803 22.5522 1.87713 21.6035 0.928413C20.9051 0.230051 19.8911 -0.0766279 18.5893 0.0161843C17.4371 0.0985855 16.1111 0.49204 14.6471 1.18414C14.1137 1.1127 13.5762 1.07679 13.038 1.07666C9.86568 1.07666 6.82327 2.33688 4.58009 4.58009C2.33691 6.8233 1.0767 9.86575 1.0767 13.0381C1.07683 13.5763 1.11274 14.1139 1.18419 14.6473C0.491984 16.1112 0.0988107 17.4372 0.0162444 18.5895C-0.076788 19.8912 0.230108 20.9053 0.928461 21.6037C1.54607 22.2213 2.41881 22.5329 3.50347 22.5329C4.15198 22.5236 4.79676 22.4329 5.42265 22.2628C7.71727 24.1571 10.6355 25.1281 13.6076 24.9864C16.5797 24.8447 19.3923 23.6004 21.4963 21.4964C23.6003 19.3924 24.8446 16.5798 24.9864 13.6077C25.1282 10.6356 24.1572 7.7173 22.263 5.4226L22.2629 5.42282ZM18.6523 0.900004C19.6861 0.826186 20.4683 1.04642 20.9768 1.55495C21.4309 2.00904 21.8597 2.90062 21.5356 4.62096C21.5222 4.6074 21.5092 4.59361 21.4958 4.58009C20.026 3.10348 18.1942 2.03889 16.1836 1.49293C17.0883 1.15419 17.9263 0.951893 18.6525 0.900004H18.6523ZM11.1709 2.1209L10.8335 3.63863C10.8097 3.74562 10.8264 3.85763 10.8804 3.95301C10.9344 4.04839 11.0219 4.12036 11.1259 4.15502L13.5738 4.97106L13.9468 6.08968C13.9779 6.18312 14.0393 6.26352 14.1213 6.31816L15.1906 7.03103L14.8628 8.34214L12.1433 10.2847L11.079 9.57512L9.31672 8.25354C9.23141 8.18955 9.12588 8.15849 9.01951 8.16604C8.91313 8.1736 8.81306 8.21928 8.73765 8.29469L7.40861 9.62374C7.36748 9.66488 7.33485 9.71372 7.31258 9.76747C7.29032 9.82122 7.27886 9.87883 7.27887 9.93701V11.9686L6.58666 12.6608L4.45605 13.513C4.37285 13.5463 4.3017 13.6041 4.25199 13.6786L3.36597 15.0077C3.31754 15.0804 3.29172 15.1658 3.29176 15.2532V17.2468L2.9152 17.5292C2.28569 16.1157 1.96115 14.5855 1.96273 13.0381C1.96273 7.56742 5.94983 3.01109 11.1709 2.1209H11.1709ZM1.55499 20.9772C1.04647 20.4687 0.826125 19.6866 0.900053 18.6527C0.951941 17.9265 1.15423 17.0885 1.49297 16.1839C2.03893 18.1945 3.1035 20.0264 4.5801 21.4962C4.59361 21.5097 4.60745 21.5227 4.62102 21.5361C2.90058 21.86 2.00913 21.4313 1.55499 20.9772V20.9772ZM7.16258 19.8175L6.48228 18.7974L7.18002 17.7507L7.9842 16.9465L9.46197 16.2076L10.5771 16.951C10.6499 16.9995 10.7355 17.0254 10.823 17.0253H11.5255L12.1178 17.6178C10.6908 18.7451 9.25165 19.6779 7.88806 20.3621L7.16258 19.8175ZM12.748 18.2476L13.168 18.6676C13.2221 18.7217 13.2893 18.7608 13.3631 18.7812C13.4369 18.8016 13.5146 18.8025 13.5888 18.7839L14.9629 18.4406L15.2291 19.2404L14.9028 20.2192L13.7842 20.5922C13.696 20.6215 13.6192 20.6779 13.5648 20.7534C13.5104 20.8288 13.4811 20.9194 13.481 21.0124V22.1044L12.3492 22.8589C12.2576 22.92 12.192 23.0131 12.1652 23.12L11.9305 24.0582C11.3706 24.0025 10.8158 23.904 10.271 23.7635L9.93256 21.3927C9.91745 21.2871 9.86477 21.1905 9.78419 21.1207C9.70362 21.0509 9.60056 21.0124 9.49393 21.0124H8.75559L8.67424 20.9515C10.0012 20.2482 11.383 19.3321 12.7477 18.2476H12.748ZM8.34209 21.8099C8.41878 21.8674 8.51205 21.8985 8.6079 21.8985H9.10967L9.33488 23.4761C8.30593 23.1095 7.33694 22.5926 6.45946 21.9421C6.8914 21.7875 7.33398 21.6046 7.78722 21.3935L8.34209 21.8099ZM12.8306 24.1109L12.9832 23.5011L14.1698 22.7101C14.2305 22.6696 14.2802 22.6148 14.3146 22.5505C14.349 22.4862 14.3671 22.4144 14.3671 22.3415V21.3317L15.3932 20.9897C15.4584 20.9679 15.5177 20.9313 15.5663 20.8827C15.6149 20.834 15.6516 20.7748 15.6733 20.7095L16.1163 19.3805C16.1467 19.2895 16.1467 19.1912 16.1163 19.1003L15.6733 17.7712C15.638 17.6653 15.5641 17.5767 15.4662 17.523C15.3684 17.4693 15.2539 17.4545 15.1456 17.4815L13.6169 17.8636L13.4372 17.6839C13.8507 17.3364 14.261 16.9746 14.6681 16.5985L14.066 15.9484C13.6507 16.333 13.2316 16.702 12.8085 17.0555L12.0221 16.2691C11.9391 16.186 11.8265 16.1393 11.709 16.1393H10.9571L9.73969 15.3276C9.6747 15.2843 9.59942 15.2589 9.52146 15.2541C9.44351 15.2492 9.36565 15.265 9.29579 15.3L7.52374 16.186C7.48114 16.2073 7.44227 16.2353 7.40861 16.2691L6.52259 17.1551C6.50197 17.1757 6.48342 17.1983 6.46721 17.2226L5.58119 18.5516C5.53267 18.6244 5.50677 18.7099 5.50677 18.7974C5.50677 18.8849 5.53267 18.9704 5.58119 19.0432L6.46721 20.3722C6.4951 20.414 6.52987 20.4507 6.57005 20.4808L6.97762 20.7865C6.5434 20.9746 6.09933 21.1391 5.64737 21.2794C4.70912 20.4375 3.92045 19.4427 3.31491 18.3371L4.00058 17.8227C4.0556 17.7815 4.10026 17.7279 4.13102 17.6664C4.16177 17.6049 4.17779 17.5371 4.17779 17.4683V15.3873L4.91307 14.2844L7.00038 13.4495C7.05608 13.4272 7.10668 13.3938 7.14912 13.3514L8.03514 12.4654C8.07628 12.4242 8.10891 12.3754 8.13117 12.3216C8.15344 12.2679 8.16489 12.2103 8.16489 12.1521V10.1205L9.09245 9.1929L10.5572 10.2914C10.5637 10.2963 10.5704 10.3011 10.5772 10.3056L11.9062 11.1916C11.981 11.2415 12.0692 11.2674 12.1591 11.266C12.249 11.2646 12.3363 11.2358 12.4095 11.1835L15.5106 8.96846C15.5963 8.90725 15.6573 8.81754 15.6829 8.71539L16.1259 6.94332C16.1481 6.85465 16.1423 6.76128 16.1094 6.67602C16.0764 6.59076 16.0179 6.51777 15.9418 6.46707L14.7393 5.66532L14.3443 4.48025C14.3225 4.41501 14.2859 4.35574 14.2373 4.30711C14.1887 4.25848 14.1294 4.22185 14.0641 4.2001L11.7851 3.44082L12.1049 2.0024C12.4127 1.97659 12.7237 1.96269 13.038 1.96269C14.5936 1.96217 16.1318 2.29011 17.5519 2.92505C18.9721 3.55999 20.2421 4.48763 21.279 5.64727C20.9381 6.76151 20.3746 7.97748 19.6011 9.266L20.3608 9.72198C21.0464 8.57955 21.5759 7.48607 21.9421 6.45971C23.0085 7.8966 23.709 9.57158 23.983 11.3399L22.5525 12.2175C22.4536 12.2781 22.3825 12.3752 22.3543 12.4877L21.5272 15.7959L19.1001 16.605C19.0119 16.6344 18.9352 16.6908 18.8808 16.7663C18.8264 16.8417 18.7972 16.9323 18.7972 17.0253V19.4999L18.0409 20.2562C17.9722 20.3249 17.928 20.4143 17.9151 20.5106C17.9022 20.6069 17.9213 20.7048 17.9695 20.7892L18.9054 22.4273C17.1477 23.5313 15.1137 24.1159 13.038 24.1136C12.9687 24.1136 12.8996 24.1122 12.8306 24.1109V24.1109ZM19.6393 21.9257L18.9067 20.6434L19.5534 19.9967C19.5946 19.9555 19.6272 19.9067 19.6495 19.8529C19.6717 19.7992 19.6832 19.7416 19.6832 19.6834V17.3446L22.0384 16.5595C22.1091 16.5359 22.1727 16.4949 22.2233 16.4402C22.2739 16.3856 22.31 16.319 22.328 16.2467L23.1702 12.8781L24.0891 12.3144C24.1046 12.5537 24.1133 12.7949 24.1133 13.0381C24.1132 14.766 23.7085 16.4698 22.9316 18.0131C22.1547 19.5565 21.0271 20.8964 19.6393 21.9257V21.9257Z" fill="black"/>
<path d="M21.0122 14.8102V11.2661C21.0122 11.1698 20.9809 11.0762 20.9229 10.9993C20.865 10.9225 20.7836 10.8666 20.691 10.8401L17.59 9.95407C17.5103 9.93127 17.4259 9.93127 17.3463 9.95407L14.2452 10.8401C14.1527 10.8666 14.0713 10.9225 14.0133 10.9993C13.9554 11.0762 13.924 11.1698 13.924 11.2661V14.8102C13.924 14.9065 13.9554 15.0001 14.0133 15.0769C14.0713 15.1538 14.1527 15.2097 14.2452 15.2362L17.3463 16.1222C17.4259 16.145 17.5103 16.145 17.59 16.1222L20.691 15.2362C20.7836 15.2097 20.865 15.1538 20.9229 15.0769C20.9809 15.0001 21.0122 14.9065 21.0122 14.8102V14.8102ZM17.4681 10.8408L18.9566 11.2661L17.4681 11.6914L15.9797 11.2661L17.4681 10.8408ZM14.8101 11.8534L17.0251 12.4863V15.1089L14.8101 14.4761V11.8534ZM17.9111 15.1089V12.4863L20.1262 11.8534V14.4761L17.9111 15.1089Z" fill="black"/>
<path d="M12.595 7.2789H13.481V8.16494H12.595V7.2789Z" fill="black"/>
<path d="M6.83585 5.50682H7.72188V6.39286H6.83585V5.50682Z" fill="black"/>
<path d="M4.62079 10.823H5.50681V11.7091H4.62079V10.823Z" fill="black"/>
<path d="M8.6079 17.4683H9.49393V18.3543H8.6079V17.4683Z" fill="black"/>
<path d="M11.266 20.5694H12.152V21.4555H11.266V20.5694Z" fill="black"/>
<path d="M20.5692 17.9113H21.4552V18.7974H20.5692V17.9113Z" fill="black"/>
</svg>
