<?xml version="1.0" standalone="no"?>
<!DOCTYPE svg PUBLIC "-//W3C//DTD SVG 20010904//EN"
 "http://www.w3.org/TR/2001/REC-SVG-20010904/DTD/svg10.dtd">
<svg version="1.0" xmlns="http://www.w3.org/2000/svg"
 width="700.000000pt" height="700.000000pt" viewBox="0 0 700.000000 700.000000"
 preserveAspectRatio="xMidYMid meet">
<metadata>
Created by potrace 1.11, written by Peter Selinger 2001-2013
</metadata>
<g transform="translate(0.000000,700.000000) scale(0.100000,-0.100000)"
fill="#000000" stroke="none">
<path d="M5190 6993 c-273 -28 -651 -138 -954 -278 -58 -27 -88 -35 -110 -31
-147 26 -613 27 -811 1 -93 -12 -127 -17 -195 -30 -41 -8 -87 -16 -101 -19
-58 -9 -301 -77 -396 -110 -816 -285 -1476 -864 -1862 -1633 -62 -126 -157
-359 -186 -458 -9 -33 -21 -71 -26 -85 -14 -38 -67 -269 -74 -320 -3 -25 -8
-52 -10 -60 -2 -8 -7 -40 -10 -70 -4 -30 -8 -66 -10 -80 -16 -128 -23 -485
-11 -585 6 -50 19 -179 19 -191 0 -6 -29 -78 -65 -160 -130 -297 -219 -596
-246 -834 -9 -80 -8 -352 1 -400 44 -223 109 -359 232 -485 82 -83 156 -134
266 -182 130 -56 239 -76 424 -77 204 -1 267 5 457 45 l98 20 77 -59 c220
-166 457 -305 708 -412 151 -65 380 -142 525 -175 57 -14 212 -45 245 -49 22
-4 54 -8 70 -11 251 -39 638 -41 893 -5 37 5 90 12 117 16 28 3 53 8 56 10 4
2 24 6 45 9 66 10 334 82 439 118 372 127 718 321 1035 580 106 87 356 338
435 437 33 41 63 77 66 80 15 13 155 221 209 310 192 317 346 724 406 1070 4
25 8 47 9 50 1 3 5 30 9 60 5 30 10 64 12 74 19 104 26 494 11 685 -4 57 -9
107 -11 110 -2 3 -6 29 -10 56 -5 48 -29 180 -42 235 -3 14 -9 43 -14 65 -13
58 -74 257 -108 350 -116 315 -281 610 -484 869 -51 65 -69 94 -65 110 52 215
62 299 62 506 0 190 -17 286 -71 422 -38 93 -126 220 -199 285 -111 99 -279
183 -420 208 -16 2 -41 8 -55 11 -28 7 -327 12 -380 7z m405 -257 c187 -45
331 -155 404 -309 54 -115 73 -199 76 -347 2 -103 -15 -314 -27 -325 -2 -2
-37 29 -78 68 -345 325 -806 595 -1240 727 -159 48 -154 43 -85 69 126 48 413
117 550 134 81 9 334 -1 400 -17z m-1595 -279 c19 -3 60 -8 90 -12 370 -39
807 -185 1155 -386 83 -47 272 -170 313 -203 139 -112 225 -188 314 -277 l108
-106 -36 -99 c-70 -195 -103 -273 -185 -440 -62 -127 -167 -319 -216 -397 -14
-23 -21 -43 -16 -48 5 -5 51 -34 103 -64 71 -42 96 -53 102 -43 116 184 295
535 374 735 27 68 53 121 59 120 14 -5 113 -151 187 -277 134 -227 270 -560
318 -780 41 -188 53 -260 42 -260 -10 0 -287 -166 -374 -224 -59 -38 -48 -5
-183 -541 -59 -231 -109 -423 -111 -427 -2 -4 -158 -57 -346 -119 -366 -120
-397 -135 -399 -196 -1 -15 -2 -177 -3 -360 l-1 -332 -113 -113 c-62 -63 -117
-120 -122 -127 -23 -38 -2 -91 123 -308 69 -120 128 -225 132 -234 6 -15 -21
-32 -196 -127 -65 -36 -316 -144 -374 -161 -22 -7 -49 -16 -60 -21 -53 -23
-323 -94 -395 -104 -37 -5 -81 -13 -115 -20 -11 -3 -58 -8 -105 -12 -47 -3
-88 -8 -92 -11 -4 -2 -77 -6 -163 -8 -120 -4 -155 -2 -155 7 0 7 8 45 18 83
l18 70 178 118 c139 92 180 125 191 150 9 22 13 78 13 175 0 79 1 144 3 146 2
2 69 25 149 51 80 27 155 55 167 64 12 9 29 32 37 51 25 63 126 364 129 390 4
25 -106 368 -137 428 -21 41 -74 65 -125 58 -32 -4 -319 -73 -398 -95 -27 -7
-35 -5 -52 13 -12 12 -21 25 -21 28 0 3 59 57 131 119 72 63 147 128 166 144
l35 31 -82 87 c-94 99 -76 99 -191 -4 -135 -120 -228 -199 -237 -199 -4 0 -59
50 -122 111 -63 61 -125 115 -138 120 -13 5 -75 9 -137 9 l-114 0 -182 120
c-144 95 -189 120 -216 120 -24 0 -115 -40 -298 -129 l-263 -130 -131 -128
c-112 -108 -149 -153 -249 -299 -142 -209 -162 -245 -156 -287 2 -20 53 -105
139 -232 116 -170 145 -207 196 -244 54 -39 58 -45 42 -55 -42 -28 -328 -127
-347 -120 -23 9 -271 268 -348 365 -75 93 -210 289 -262 380 l-26 46 101 73
c56 40 109 86 119 102 16 26 18 60 18 324 0 268 2 297 19 324 10 16 54 83 98
149 62 92 88 124 115 135 19 9 154 63 300 120 l265 104 128 123 c70 68 137
139 149 158 21 33 22 46 22 323 l1 288 125 125 125 125 47 -32 c26 -18 113
-82 195 -143 155 -115 217 -157 426 -294 96 -62 139 -85 170 -88 47 -5 14 -25
386 237 105 74 219 155 254 178 243 170 314 223 324 244 17 33 137 508 136
538 -2 62 -19 78 -202 198 l-180 117 -57 170 c-40 117 -66 178 -83 196 -20 20
-100 50 -341 129 -173 56 -318 105 -323 109 -4 4 9 79 29 167 20 87 37 166 39
174 2 8 5 22 7 30 2 10 19 17 48 20 56 7 453 4 500 -3z m-822 -124 c-10 -49
-21 -99 -24 -113 -3 -14 -7 -33 -10 -42 -3 -10 -7 -30 -10 -45 -3 -16 -9 -44
-14 -63 -25 -97 -14 -145 38 -177 16 -10 181 -68 366 -128 l336 -110 41 -125
c76 -228 60 -208 241 -327 87 -57 158 -109 158 -114 0 -24 -84 -335 -93 -347
-6 -7 -114 -86 -241 -175 -127 -89 -287 -202 -356 -250 -69 -49 -130 -91 -136
-94 -14 -5 -284 172 -444 291 -379 283 -378 282 -436 271 -32 -6 -68 -36 -229
-193 -104 -103 -199 -198 -210 -212 -19 -24 -20 -42 -23 -323 l-3 -299 -102
-99 c-56 -54 -108 -99 -115 -99 -7 0 -20 -4 -30 -9 -18 -9 -32 -15 -192 -76
-52 -20 -109 -43 -127 -51 -17 -8 -34 -14 -38 -14 -3 0 -25 -8 -48 -18 -23
-11 -68 -29 -99 -41 l-57 -23 -134 -197 c-74 -108 -138 -203 -143 -211 -5 -8
-9 -145 -9 -303 -1 -243 -3 -290 -15 -297 -8 -5 -28 -20 -45 -34 -16 -14 -34
-24 -40 -23 -26 9 -158 384 -189 537 -28 139 -45 235 -51 285 -4 33 -10 71
-12 85 -9 45 -11 493 -3 565 16 139 20 170 24 191 3 12 7 39 10 60 4 21 13 66
21 100 8 34 16 73 19 85 2 13 18 73 36 133 78 270 218 570 373 801 39 58 146
205 157 215 3 3 21 25 41 50 122 150 294 316 485 468 70 55 268 184 369 240
243 136 491 233 765 300 180 44 204 49 212 45 3 -1 -3 -42 -14 -90z m3573
-2695 c9 -191 -3 -457 -26 -588 -2 -14 -7 -42 -10 -63 -29 -203 -120 -505
-219 -726 -147 -329 -354 -629 -611 -886 -110 -111 -336 -305 -354 -305 -6 0
-188 302 -200 333 -2 5 39 53 92 106 52 53 100 106 106 118 7 15 11 129 11
350 l0 328 335 110 c260 84 340 115 359 134 25 27 28 35 196 699 28 112 53
212 55 223 2 10 8 25 12 33 8 15 230 155 246 156 4 0 7 -10 8 -22z m-6162
-1173 c148 -455 410 -886 748 -1232 30 -31 50 -59 46 -63 -26 -25 -366 -35
-478 -15 -253 45 -424 190 -493 416 -46 149 -49 370 -9 574 13 61 21 101 22
105 1 3 5 19 9 35 17 75 101 324 107 317 3 -4 25 -65 48 -137z m2278 57 c205
-137 194 -132 319 -132 l110 0 82 -80 82 -80 -128 -95 c-70 -52 -131 -98 -137
-103 -19 -16 -326 -222 -330 -222 -2 0 -42 -24 -87 -53 -204 -131 -471 -272
-492 -260 -7 4 -52 37 -100 73 -80 59 -96 78 -181 204 l-94 139 96 141 c72
104 126 169 207 250 l111 108 200 99 c110 55 205 97 212 95 7 -3 65 -41 130
-84z m919 -603 c5 0 21 -3 36 -5 15 -3 115 18 223 45 196 49 196 49 204 28 5
-12 21 -62 37 -110 l29 -89 -45 -131 -45 -130 -159 -53 c-87 -29 -169 -60
-182 -69 -44 -29 -51 -58 -50 -229 l1 -159 -172 -114 c-191 -126 -178 -109
-218 -273 -9 -36 -21 -82 -26 -104 l-10 -38 -52 6 c-69 7 -137 17 -164 22 -13
2 -35 6 -50 9 -75 14 -179 39 -185 45 -4 3 -10 23 -13 45 -6 54 -17 125 -21
150 -2 11 -11 70 -19 130 -9 61 -17 121 -20 135 -4 24 -6 42 -21 145 -15 114
-49 135 -212 135 -67 0 -123 4 -126 9 -3 5 78 57 182 116 103 59 277 167 387
239 200 133 224 150 429 303 l110 83 72 -70 c39 -39 76 -70 80 -71z m-1451
-759 c11 -10 44 -34 74 -54 51 -35 56 -36 142 -36 49 0 88 -3 87 -7 -1 -5 2
-35 7 -68 4 -33 9 -67 10 -75 4 -33 18 -126 20 -140 12 -66 16 -130 7 -130
-22 0 -265 106 -377 164 -124 65 -263 148 -349 210 l-50 35 30 11 c72 27 258
104 292 120 40 20 54 16 107 -30z"/>
<path d="M4805 4280 c-603 -168 -755 -212 -783 -227 -67 -34 -66 -23 -66 -578
0 -537 1 -547 50 -580 14 -9 170 -57 347 -107 375 -105 353 -99 482 -134 l100
-27 220 62 c490 138 681 194 696 202 9 4 24 21 35 36 17 26 18 59 19 533 1
473 0 507 -17 543 -24 48 -38 54 -283 122 -110 31 -302 85 -427 121 -125 35
-237 64 -250 63 -13 0 -68 -13 -123 -29z m315 -269 c96 -27 184 -51 195 -54
16 -3 17 -5 5 -10 -20 -9 -372 -109 -385 -109 -9 -1 -176 44 -335 90 -61 17
-85 32 -54 32 10 0 57 12 104 26 47 14 92 27 100 29 45 10 163 45 167 49 3 3
10 3 16 1 7 -2 91 -26 187 -54z m-630 -302 c140 -39 270 -76 288 -81 l32 -9 0
-356 c0 -280 -3 -354 -12 -350 -7 2 -56 16 -108 31 -52 14 -111 31 -130 36
-19 5 -100 28 -180 50 -80 23 -153 43 -162 46 -17 5 -18 31 -18 360 0 334 1
355 18 350 9 -3 132 -37 272 -77z m1170 -274 l0 -354 -38 -10 c-51 -14 -533
-150 -554 -157 -17 -5 -18 16 -18 350 l0 355 68 20 c249 72 519 148 530 150 9
1 12 -76 12 -354z"/>
<path d="M2010 5390 l0 -120 120 0 120 0 0 120 0 120 -120 0 -120 0 0 -120z"/>
<path d="M3590 4910 l0 -120 123 0 122 0 -1 117 0 118 -122 3 -122 3 0 -121z"/>
<path d="M1400 3950 l0 -120 120 0 c66 0 120 3 121 8 0 4 1 57 2 117 l1 110
-122 3 -122 3 0 -121z"/>
<path d="M5782 2030 l0 -120 122 0 122 0 0 120 0 120 -122 0 -122 0 0 -120z"/>
<path d="M2496 2158 c1 -62 2 -116 3 -120 0 -5 55 -8 121 -8 l120 0 0 120 0
120 -123 0 -123 0 2 -112z"/>
<path d="M3228 1423 c-4 -7 -3 -186 1 -220 1 -10 32 -13 121 -13 l120 0 0 120
0 120 -119 0 c-66 0 -121 -3 -123 -7z"/>
</g>
</svg>
