<svg width="30" height="30" viewBox="0 0 30 30" fill="none" xmlns="http://www.w3.org/2000/svg">
<path d="M26.7764 6.29205C27.3836 3.9775 27.1171 2.17802 25.9998 1.07723C25.1773 0.266926 23.9831 -0.0889105 22.4499 0.0187784C21.0929 0.114388 19.5312 0.570909 17.8071 1.37395C17.1789 1.29105 16.5458 1.24939 15.912 1.24923C12.1758 1.24923 8.59266 2.71146 5.95078 5.31423C3.30891 7.917 1.82473 11.4471 1.82473 15.128C1.82488 15.7524 1.86717 16.3762 1.95132 16.9951C1.13608 18.6937 0.673029 20.2322 0.575788 21.5692C0.46622 23.0795 0.827662 24.2562 1.65014 25.0665C2.37752 25.7832 3.40537 26.1447 4.68281 26.1447C5.44658 26.1339 6.20596 26.0286 6.94309 25.8313C9.64555 28.0292 13.0824 29.1559 16.5828 28.9915C20.0831 28.8271 23.3956 27.3833 25.8736 24.9421C28.3515 22.5009 29.817 19.2374 29.984 15.7889C30.151 12.3404 29.0074 8.9543 26.7766 6.29179L26.7764 6.29205ZM22.5241 1.04427C23.7417 0.958615 24.6628 1.21415 25.2617 1.80419C25.7965 2.33107 26.3015 3.36555 25.9199 5.36165C25.9041 5.34591 25.8888 5.32991 25.873 5.31423C24.142 3.60094 21.9846 2.36571 19.6167 1.73223C20.6821 1.33919 21.6691 1.10447 22.5243 1.04427H22.5241ZM13.7131 2.46086L13.3156 4.22186C13.2876 4.34601 13.3073 4.47597 13.3709 4.58664C13.4345 4.6973 13.5375 4.78081 13.66 4.82102L16.543 5.76786L16.9823 7.06579C17.019 7.17421 17.0913 7.26749 17.1878 7.3309L18.4472 8.15803L18.0611 9.6793L14.8582 11.9333L13.6047 11.1099L11.5293 9.5765C11.4288 9.50225 11.3045 9.4662 11.1792 9.47497C11.054 9.48374 10.9361 9.53674 10.8473 9.62424L9.28203 11.1663C9.23358 11.2141 9.19515 11.2707 9.16893 11.3331C9.14271 11.3955 9.12922 11.4623 9.12922 11.5298V13.887L8.31399 14.6902L5.8047 15.679C5.70671 15.7177 5.62291 15.7846 5.56437 15.8712L4.52087 17.4132C4.46383 17.4976 4.43342 17.5968 4.43348 17.6981V20.0113L3.98999 20.339C3.24859 18.6989 2.86637 16.9233 2.86823 15.128C2.86823 8.78039 7.56397 3.49374 13.713 2.46086H13.7131ZM2.38802 24.3396C1.78912 23.7496 1.52961 22.8422 1.61668 21.6425C1.67779 20.7999 1.91603 19.8276 2.31498 18.7781C2.95797 21.1109 4.21175 23.2364 5.95079 24.9418C5.9667 24.9574 5.98301 24.9725 5.99899 24.9881C3.97277 25.3639 2.92288 24.8665 2.38802 24.3396ZM8.99226 22.9941L8.19105 21.8104L9.01281 20.596L9.95991 19.6629L11.7003 18.8055L13.0136 19.6681C13.0994 19.7244 13.2002 19.7544 13.3032 19.7543H14.1307L14.8282 20.4418C13.1476 21.7498 11.4526 22.832 9.84669 23.6259L8.99226 22.9941ZM15.5704 21.1725L16.065 21.6598C16.1288 21.7226 16.208 21.768 16.2948 21.7916C16.3817 21.8153 16.4733 21.8164 16.5607 21.7948L18.179 21.3964L18.4925 22.3244L18.1082 23.4601L16.7908 23.8929C16.6869 23.927 16.5964 23.9924 16.5323 24.0799C16.4683 24.1674 16.4337 24.2726 16.4337 24.3805V25.6475L15.1008 26.523C14.9928 26.5939 14.9156 26.7019 14.8841 26.8259L14.6076 27.9145C13.9482 27.8498 13.2948 27.7355 12.6532 27.5725L12.2546 24.8217C12.2368 24.6992 12.1747 24.5872 12.0798 24.5061C11.9849 24.4251 11.8636 24.3805 11.738 24.3805H10.8684L10.7726 24.3098C12.3354 23.4938 13.9628 22.4308 15.5701 21.1725H15.5704ZM10.3814 25.3058C10.4717 25.3725 10.5816 25.4086 10.6945 25.4086H11.2854L11.5507 27.239C10.3388 26.8137 9.19762 26.214 8.16418 25.4592C8.67289 25.2798 9.19414 25.0676 9.72793 24.8226L10.3814 25.3058ZM15.6677 27.9756L15.8474 27.2681L17.2449 26.3503C17.3164 26.3033 17.375 26.2397 17.4155 26.1651C17.456 26.0905 17.4772 26.0072 17.4772 25.9226V24.751L18.6857 24.3541C18.7626 24.3289 18.8324 24.2864 18.8896 24.2299C18.9469 24.1735 18.99 24.1047 19.0157 24.029L19.5374 22.487C19.5732 22.3814 19.5732 22.2674 19.5374 22.1618L19.0157 20.6198C18.9741 20.4969 18.887 20.394 18.7718 20.3317C18.6566 20.2694 18.5217 20.2522 18.3942 20.2836L16.5938 20.727L16.3821 20.5185C16.8691 20.1152 17.3523 19.6954 17.8318 19.2591L17.1227 18.5048C16.6336 18.951 16.1399 19.3792 15.6416 19.7893L14.7155 18.8769C14.6177 18.7805 14.4851 18.7263 14.3467 18.7262H13.4612L12.0274 17.7845C11.9509 17.7342 11.8622 17.7048 11.7704 17.6991C11.6786 17.6935 11.5869 17.7118 11.5046 17.7524L9.41762 18.7804C9.36745 18.8052 9.32166 18.8377 9.28203 18.8768L8.23853 19.9049C8.21424 19.9288 8.1924 19.955 8.17331 19.9832L7.12981 21.5253C7.07266 21.6097 7.04217 21.7089 7.04217 21.8104C7.04217 21.9119 7.07266 22.0111 7.12981 22.0956L8.17331 23.6377C8.20616 23.6861 8.24711 23.7287 8.29442 23.7637L8.77443 24.1184C8.26304 24.3366 7.74005 24.5275 7.20775 24.6902C6.10275 23.7135 5.1739 22.5591 4.46074 21.2764L5.26827 20.6795C5.33307 20.6316 5.38567 20.5695 5.42189 20.4982C5.45812 20.4268 5.47697 20.3481 5.47697 20.2683V17.8538L6.34295 16.574L8.80124 15.6053C8.86684 15.5794 8.92644 15.5407 8.97642 15.4915L10.0199 14.4634C10.0684 14.4157 10.1068 14.359 10.133 14.2967C10.1592 14.2343 10.1727 14.1674 10.1727 14.0999V11.7427L11.2651 10.6664L12.9902 11.941C12.9979 11.9467 13.0057 11.9522 13.0138 11.9575L14.579 12.9855C14.6671 13.0434 14.771 13.0735 14.8769 13.0718C14.9827 13.0701 15.0856 13.0368 15.1717 12.9762L18.824 10.406C18.9249 10.335 18.9968 10.2309 19.0269 10.1124L19.5486 8.05626C19.5748 7.95337 19.568 7.84504 19.5292 7.74611C19.4904 7.64719 19.4215 7.5625 19.3319 7.50367L17.9156 6.57341L17.4504 5.19839C17.4248 5.12269 17.3817 5.05391 17.3244 4.99749C17.2671 4.94107 17.1973 4.89856 17.1205 4.87333L14.4364 3.99235L14.813 2.32336C15.1755 2.29342 15.5418 2.27729 15.912 2.27729C17.7441 2.27668 19.5556 2.65719 21.2282 3.3939C22.9007 4.13062 24.3965 5.20695 25.6177 6.55247C25.2162 7.84531 24.5525 9.25619 23.6416 10.7512L24.5362 11.2803C25.3437 9.95476 25.9673 8.686 26.3986 7.49513C27.6546 9.16235 28.4796 11.1058 28.8023 13.1575L27.1175 14.1758C27.001 14.2462 26.9172 14.3588 26.8841 14.4893L25.91 18.3278L23.0515 19.2666C22.9476 19.3008 22.8572 19.3662 22.7932 19.4537C22.7292 19.5412 22.6947 19.6464 22.6947 19.7543V22.6255L21.804 23.503C21.7231 23.5827 21.671 23.6865 21.6558 23.7982C21.6406 23.91 21.6632 24.0236 21.72 24.1215L22.8222 26.0222C20.752 27.3031 18.3565 27.9814 15.912 27.9787C15.8303 27.9787 15.7489 27.9771 15.6677 27.9756ZM23.6866 25.4402L22.8237 23.9523L23.5854 23.2019C23.6339 23.1542 23.6723 23.0975 23.6985 23.0351C23.7247 22.9728 23.7382 22.9059 23.7382 22.8384V20.1247L26.512 19.2138C26.5952 19.1865 26.6702 19.1389 26.7298 19.0754C26.7894 19.012 26.8318 18.9347 26.8531 18.8509L27.845 14.9423L28.9272 14.2883C28.9454 14.566 28.9557 14.8458 28.9557 15.128C28.9556 17.1328 28.4789 19.1097 27.5639 20.9005C26.6489 22.6912 25.321 24.2459 23.6866 25.4402Z" fill="white"/>
<path d="M25.3035 17.1841V13.0719C25.3035 12.9602 25.2666 12.8516 25.1983 12.7624C25.1301 12.6732 25.0342 12.6084 24.9252 12.5777L21.273 11.5496C21.1792 11.5231 21.0798 11.5231 20.986 11.5496L17.3337 12.5777C17.2248 12.6084 17.1289 12.6732 17.0606 12.7624C16.9924 12.8516 16.9555 12.9602 16.9555 13.0719V17.1841C16.9555 17.2958 16.9924 17.4044 17.0606 17.4936C17.1289 17.5828 17.2248 17.6476 17.3337 17.6784L20.986 18.7064C21.0798 18.7328 21.1792 18.7328 21.273 18.7064L24.9252 17.6784C25.0342 17.6476 25.1301 17.5828 25.1983 17.4936C25.2666 17.4044 25.3035 17.2958 25.3035 17.1841ZM21.1295 12.5784L22.8825 13.0719L21.1295 13.5654L19.3765 13.0719L21.1295 12.5784ZM17.999 13.7534L20.6077 14.4877V17.5307L17.999 16.7964V13.7534ZM21.6512 17.5307V14.4877L24.26 13.7534V16.7964L21.6512 17.5307Z" fill="white"/>
<path d="M15.3902 8.44563H16.4337V9.47369H15.3902V8.44563Z" fill="white"/>
<path d="M8.60748 6.38951H9.65097V7.41757H8.60748V6.38951Z" fill="white"/>
<path d="M5.99872 12.5579H7.04222V13.5859H5.99872V12.5579Z" fill="white"/>
<path d="M10.6945 20.2683H11.738V21.2963H10.6945V20.2683Z" fill="white"/>
<path d="M13.825 23.8665H14.8685V24.8945H13.825V23.8665Z" fill="white"/>
<path d="M24.7817 20.7823H25.8252V21.8104H24.7817V20.7823Z" fill="white"/>
</svg>
