<svg xmlns="http://www.w3.org/2000/svg" width="16" height="11" viewBox="0 0 16 11"><g><g><g><path fill="#fff" d="M15.07 1.29l-3.93 4.003a.07.07 0 0 0 0 .102l2.75 2.93a.474.474 0 0 1-.335.81.479.479 0 0 1-.336-.139l-2.74-2.918a.075.075 0 0 0-.106 0l-.668.68a2.94 2.94 0 0 1-2.097.883 3 3 0 0 1-2.14-.91l-.643-.653a.075.075 0 0 0-.106 0L1.98 8.996a.479.479 0 0 1-.671 0 .474.474 0 0 1 0-.672l2.75-2.93a.078.078 0 0 0 0-.101L.124 1.289A.072.072 0 0 0 0 1.34v8.01c0 .644.526 1.17 1.169 1.17h12.857c.643 0 1.169-.526 1.169-1.17V1.34c0-.065-.08-.094-.124-.05z"/></g><g><path fill="#fff" d="M7.597 6.688c.541 0 1.049-.212 1.429-.6l5.73-5.832c-.2-.161-.449-.256-.723-.256H1.165a1.14 1.14 0 0 0-.723.256l5.73 5.833c.377.383.885.599 1.425.599z"/></g></g></g></svg>