<svg xmlns="http://www.w3.org/2000/svg" width="15" height="15" viewBox="0 0 15 15"><g><g><path fill="#fff" d="M14.567 11.745c-.574-.574-1.953-1.437-2.632-1.76-.789-.38-1.078-.372-1.636.03-.465.336-.766.649-1.3.531-.536-.113-1.59-.913-2.613-1.933-1.023-1.023-1.82-2.077-1.933-2.612-.113-.539.2-.836.531-1.3.402-.559.414-.848.031-1.637-.324-.683-1.183-2.058-1.76-2.632-.575-.574-.703-.449-1.02-.336 0 0-.468.188-.933.496-.574.383-.894.703-1.12 1.183-.223.48-.481 1.375.831 3.71 1.058 1.887 2.097 3.316 3.64 4.855l.003.003.004.004c1.543 1.543 2.968 2.582 4.854 3.64 2.335 1.312 3.23 1.054 3.71.832.48-.223.8-.543 1.183-1.121a5.8 5.8 0 0 0 .496-.933c.113-.317.242-.446-.336-1.02z"/></g></g></svg>