<svg xmlns="http://www.w3.org/2000/svg" width="15" height="15" viewBox="0 0 15 15"><g><g><path fill="#fff" d="M14.993 14.71c-.282-1.241-1.887-1.847-2.442-2.042-.61-.215-1.477-.266-2.035-.39-.32-.071-.785-.247-.942-.434-.156-.188-.062-1.926-.062-1.926s.289-.45.445-.848c.156-.394.328-1.48.328-1.48s.32 0 .434-.563c.121-.613.312-.851.289-1.308-.023-.45-.27-.438-.27-.438s.239-.652.266-2.004C11.04 1.672 9.781.09 7.504.09 5.195.09 3.964 1.672 4 3.277c.031 1.352.262 2.004.262 2.004s-.247-.011-.27.438c-.023.457.168.695.29 1.308.108.563.433.563.433.563s.172 1.086.328 1.48c.156.399.445.848.445.848s.094 1.738-.062 1.926c-.157.187-.621.363-.942.433-.558.125-1.426.176-2.035.391-.555.195-2.16.8-2.442 2.043a.312.312 0 0 0 .309.379h14.372c.2 0 .348-.184.305-.379z"/></g></g></svg>